# xmcd
#
# Track frame offsets: 
#        150
#        26531
#        67413
#        87468
#        121991
#        128747
#        145780
#        152736
#        183351
#        185143
#        186693
#        202043
#        205081
#        207324
#        223203
#        229687
#        230739
#        233720
#        250681
#        252963
#        259332
#        277763
#        283739
#        300570
#        317421
#
# Disc length: 4478 seconds
#
# Revision: 0
# Processed by: cddbd v1.5.2PL0 Copyright (c) Steve Scherf et al.
# Submitted via: ExactAudioCopy v0.95b3
#
DISCID=83117c19
DTITLE=Led Zeppelin  - Studio Sessions Ultimate [Disc 10] 
DYEAR=1900
DGENRE=
TTITLE0=Trampled Under Foot (alternate mix)
TTITLE1=Kashmir (instrumental)
TTITLE2=Custard Pie (alternate mix)
TTITLE3=In The Light (early version)
TTITLE4=Midnight Moonlight
TTITLE5=Midnight Moonlight
TTITLE6=Ten Years Gone
TTITLE7=Ten Years Gone
TTITLE8=Ten Years Gone
TTITLE9=Ten Years Gone
TTITLE10=Boogie With Stu
TTITLE11=Boogie With Stu
TTITLE12=Boogie With Stu
TTITLE13=Boogie With Stu
TTITLE14=Boogie With Stu
TTITLE15=Boogie With Stu
TTITLE16=Boogie With Stu
TTITLE17=Boogie With Stu
TTITLE18=Night Flight
TTITLE19=Night Flight
TTITLE20=Night Flight
TTITLE21=Night Flight
TTITLE22=Night Flight
TTITLE23=Night Flight
TTITLE24=The Wanton Song
EXTD=
EXTT0=
EXTT1=
EXTT2=
EXTT3=
EXTT4=
EXTT5=
EXTT6=
EXTT7=
EXTT8=
EXTT9=
EXTT10=
EXTT11=
EXTT12=
EXTT13=
EXTT14=
EXTT15=
EXTT16=
EXTT17=
EXTT18=
EXTT19=
EXTT20=
EXTT21=
EXTT22=
EXTT23=
EXTT24=
PLAYORDER=
